<?xml version="1.0" encoding="utf-8"?>
<!-- Generator: Adobe Illustrator 26.4.1, SVG Export Plug-In . SVG Version: 6.00 Build 0)  -->
<svg version="1.1" xmlns="http://www.w3.org/2000/svg" xmlns:xlink="http://www.w3.org/1999/xlink" x="0px" y="0px"
	 viewBox="0 0 1366 768" style="enable-background:new 0 0 1366 768;" xml:space="preserve">
<style type="text/css">
	.st0{fill:url(#SVGID_1_);}
</style>
<g id="Base-layer">
	<g>
		<linearGradient id="SVGID_1_" gradientUnits="userSpaceOnUse" x1="0.245" y1="384.02" x2="1366.245" y2="384.02">
			<stop  offset="0" style="stop-color:#FFE99E"/>
			<stop  offset="0.2576" style="stop-color:#FBC3A3;stop-opacity:0.8969"/>
			<stop  offset="0.8306" style="stop-color:#F263AF;stop-opacity:0.6678"/>
			<stop  offset="1" style="stop-color:#EF45B3;stop-opacity:0.6"/>
		</linearGradient>
		<rect x="0.2" y="0" class="st0" width="1366" height="768"/>
	</g>
</g>
<g id="Layer_2">
	<g>
		<g>
			<defs>
				<rect id="SVGID_00000007423329087692112570000013509023760444490165_" x="322.5" y="55" width="586" height="586"/>
			</defs>
			<clipPath id="SVGID_00000036210043837099388100000005491671817046004896_">
				<use xlink:href="#SVGID_00000007423329087692112570000013509023760444490165_"  style="overflow:visible;"/>
			</clipPath>
		</g>
	</g>
	<g>
		<path d="M1017.2,318.6c-1.2-0.3-1.7-0.2-2-0.5c-33.8-22.8-71.7-35.5-111.2-44c-26-5.6-52.3-9.1-78.8-10.8
			c-3.4-0.2-6.9-0.2-7.9-6.3c-1.6,6-4.5,5-8,4.7c-7.6-0.6-15.3,0.1-23,0c-34.8-0.4-69.3,1.7-103.5,8.1c-3.5,0.6-5.2,1.7-5.4,5.7
			c-2,29-0.1,57.7,6,86.2c0.7,3.1-0.2,6.5-0.3,9.8c0,0.6,0.2,1.1,0.5,2.9c0.4-1.8,0.6-2.5,0.7-3.1c3.5,7.9,3.7,9.6,3,18.6
			c0.7-1.4,1.5-2.7,2.3-4.1c17.4,46.9,39.7,91,74.7,128.3c-6.8-3.9-13.9-7.4-20.5-11.8c-34.3-22.8-57.9-54.3-74.1-91.7
			c-2.3-5.1-2.3-11.6-5.5-15.9c-6.2-8.6-1.1-19.5-6.8-27.8c-0.5-0.7-1.3-1.1-2.1-1.9c0.7-1.6,1.7-3.6,2.6-5.5
			c-0.4-0.3-0.7-0.5-1.1-0.8c-1.2,1.1-2.4,2.2-3.6,3.4c-6.8-26.7-10-53.9-10.5-82.3c-5.4,1.9-10.1,3.4-14.7,5.3
			c-0.8,0.3-1.4,2.4-1.3,3.6c1.1,24.9,4.5,49.5,10.8,73.8c0.6,2.3,0.4,4.7,1,7c0.4,1.9,1.3,3.7,2,5.6c1.2,3.3,3.2,6.6,3.5,10
			c0.4,5.9,3.5,10.6,5.5,15.9c9.8,26.3,22.7,50.8,39.5,73.3c3.2,4.3,6.9,8.2,10,12.9c-3.9-2.3-7.9-4.3-11.6-6.8
			c-6.9-4.5-13.2-9.5-19.1-14.8c-2-1.8-3.9-3.6-5.7-5.5c-16.4-16.4-28.8-35.9-38.2-57.8c-13.4-31.1-21.4-63.7-27.2-96.9
			c-0.3-1.6-0.5-3.2-0.8-4.8c-0.1-0.4-0.3-0.8-0.7-1.9c-4.1,2.1-8.3,4-12.1,6.4c-0.8,0.5-0.9,2.6-0.7,4c2.6,22.1,7.3,43.8,13.9,65.1
			c8.4,27.4,18.4,54.1,33.8,78.5c0.2,0.3,0.2,0.7-0.6,1.9c-6.2-5.8-12.9-11.1-18.6-17.3c-20.6-22.6-34-49.4-44.4-77.9
			c-4.4-12.1-8-24.5-12.2-37.3c-4.2,3-8.5,5.7-12.4,9c-0.8,0.6-0.7,2.9-0.3,4.3c7.5,28.4,19.6,54.9,35.1,79.8
			c4.1,6.7,8.4,13.2,12.3,20.1c-36-17.8-55.6-49.4-70.8-85.4c-4.6,4.5-8.9,8.3-12.8,12.6c-0.8,0.9-0.8,3.3-0.1,4.5
			c11.6,20.8,25.1,40.2,41.4,57.7c0.4,0.4,0.8,0.9,1.2,1.4c-6.4-0.6-22.4-8.5-33.1-17.7c-9.5-8.2-18.1-17.3-27.6-26.6
			c-6.1,8.1-12.9,16.7-19.3,25.5c-21.1,29.7-37.3,62.2-53.6,94.6c-10.3,20.4-20.7,40.7-34.7,58.9c-7.7,9.9-16.4,18.7-27.1,25.4
			c-1.6,1-3.3,1.9-5,2.9c-0.3,0.2-0.8,0.2-1.8,0.4c2.2-5.4,4.3-10.4,6.3-15.4c12.4-32.6,19.4-66.5,23.4-101
			c4.3-37.2,4.9-74.5,1.7-111.9c-3.8-43.5-12.1-86-30.2-126c-3.4-7.5-7.4-14.7-10.4-22.8c6.9,5.7,14.1,11.1,20.6,17.2
			c23.5,22.1,41,48.6,55.8,77.1c11.5,22.1,21.1,45.1,28.7,68.8c0.1,0.4,0.4,0.8,1,1.8c16.7-19.3,35.1-36.5,54.9-52.3
			c19.8-15.8,40.9-29.8,63.2-42.1c-3.6-3.9-6.9-7.6-10.8-11.9c-2.1,1-4.6,0.7-5-3.4c0,0,0.1,0,0.1,0c0.1-0.1,0.2-0.3,0.3-0.4
			c1.8-0.6,3.6-1.1,5.7-1.7c-0.8-2.1,1.6-6.7-4.3-6.4c1,0.9,1.9,1.7,2.8,2.5c-1.5,2-2.8,3.8-4.2,5.7c-0.1,0-0.3,0.1-0.5,0.1
			c0,0.1,0,0.2,0,0.3c-2.5-0.9-5.3-1.5-7.4-2.9c-23.1-15.5-48.9-24.4-75.1-32.8c-6.9-2.2-13.8-4.3-20.8-6.5
			c7.9-2.7,49.7-0.1,72.9,7.4c23.5,7.5,46.8,15.4,69.6,22.9c-23.9-18-51.5-30.4-80.7-39.8c41.4-0.4,80.2,10.9,118.3,25.5
			c-32.1-24.3-68.4-39.9-106.8-52.3c10-2.1,58.1,5.4,81,12.5c26.2,8.1,51.3,19,76.5,30.3c-8.7-6.6-17.2-13.5-26.1-19.8
			c-9-6.3-18.1-12.5-27.7-17.8c-9.6-5.3-19.9-9.6-29.8-15.1c12.8,2.5,25.8,4.6,38.5,7.6c34.1,8.1,64.9,23,91.5,46.1
			c1.5,1.3,4,2.2,5.9,2c31.3-2.6,62.5-2.1,93.7,1.4c44,5,86.5,15.8,127,33.6c21.6,9.6,42.4,20.5,60.2,36.4c2.8,2.6,5.5,5.4,8.2,8.1
			C1014.7,315.4,1015.6,316.7,1017.2,318.6L1017.2,318.6z"/>
		<path d="M545.3,266.8c-0.1,0.1-0.2,0.3-0.3,0.4c0,0-0.1,0-0.1,0c0-0.1,0-0.1,0-0.3C544.9,266.9,545.1,266.8,545.3,266.8
			L545.3,266.8z"/>
		<path d="M709,377.9c-0.8,0.5-1.7,1-2.5,1.5c-3-4.3-2.8-8.1,1.7-11.6l-1.2-0.4c-1.2,0.3-2.4,0.5-4.3,1c-1.7-7.4-3.3-14.9-5-22.5
			c5.1-2.6,10.2-4.6,14.8-7.5c9.1-5.8,18.6-11.2,26.6-18.2c12.9-11.3,11.9-22.5-1.8-32.8c-4.7-3.5-10-6.2-16-9.9
			c11.6-0.8,22.2-1.9,32.9-2.2c17.2-0.4,34.4-0.7,51.6,0c47.7,1.9,94.9,7.9,140.4,23.1c17.5,5.8,34.3,13,50.2,22.4
			c1.2,0.7,2.4,1.5,4.3,2.8c-95.5,1.6-182.7,24.7-256.2,87.8c11.5,24.3,24.4,46.5,43.8,64.2c6.1,5.6,12.6,10.8,19.1,16
			c23.5,18.7,51,27.1,80.4,29.7c37.1,3.2,73.2-1.7,106.7-18.8c12.7-6.5,24.4-15,35.8-22.1c-1,1.4-2.5,4-4.3,6.3
			c-16.3,20.6-38,33.5-62.7,40.8c-62.7,18.3-122.2,10.5-176.4-26.7c-29.7-20.4-50.1-49.2-65.3-81.7c-0.5-1.1-1-2.2-1.5-3.2
			c-3.4-7.3-2-10.1,6-12.2c1.7-0.5,3.4-1.1,5.4-1.8c-1.1-4.8,1.6-8,5.3-10.9c22.2-17.5,45.7-32.9,71.5-44.4c1.3-0.6,2.6-1.3,3.8-2.2
			c-14.3,2.7-27.9,7.8-41,14c-10.6,5-20.8,10.6-31.1,16.1c-5.9,3.1-5.8,3.3-12,2.6c-0.3,1-0.4,2.2-0.9,3.2c-0.9,1.6-2.1,4.3-3.2,4.3
			c-5.2,0.1-6.6,4.8-10.6,8.2c-0.6-1.8-1.4-3.2-1.6-4.6c-0.4-3-0.4-6.1-0.7-9.1c0-0.3-1.3-0.5-2.1-0.8c1.8-3,5.2-5.7,1.3-10.8
			c-1,3.8-1.8,6.5-2.7,10C707.4,377,708.2,377.5,709,377.9L709,377.9z M796.9,291.4c4.5,5.3,8.6,10.5,13.1,15.3
			c8.5,9.1,17.9,17.3,29.7,22.1c10.6,4.3,20.7,3.8,30.4-2.8c4.8-3.2,9.9-5.9,15.2-8.2c12.9-5.6,26.4-7.7,41.2-4.8
			C899.8,293,829.3,282.9,796.9,291.4L796.9,291.4z M850.6,340.4c-26.4-6-45.7-21-58.1-45.6C791.1,324.7,826.2,351.9,850.6,340.4z
			 M716.3,367.2c-0.4,0.3-0.9,0.5-1.3,0.8c0.4,2.2,0.8,4.5,1.2,6.7c0.6,0,1.2,0,1.9,0.1c0.4-1.6,1.2-3.4,1-4.9
			C718.9,368.9,717.2,368.1,716.3,367.2L716.3,367.2z"/>
		<path d="M779.3,456.9c17.7,1.2,34.1-1.4,49.4-10.4c-0.9,7.1-7.2,13.1-25.4,24.4c16.3,2.8,32.4-0.6,49.3-17.7
			c5.2,11.6-2.5,27.1-19.3,38.7c4.2,1.4,11.9,0.3,19.1-3.9c5.9-3.5,11.7-7.6,16.5-12.5c4.6-4.8,7.9-10.9,11.6-16.3
			c7.1,15.7,3.4,30.7-11,44.1c17.1-1.1,33.9-24.1,38.4-52.4c10.5,11.7,14.8,36,5.3,55.7c10.5-4.4,17.5-16.6,23-40.3
			c10.9,10,12.9,22.3,11.4,35.7c9.9-3.4,15-25.3,10.9-46.6c11.8,3.5,20.2,18.7,19.8,35.4c10.2-6.8,12.3-24,4.4-41.4
			c2.3,0.8,4,1.2,5.6,2c10,5,17.1,13,22.1,22.9c1.5,3,1,4.8-1.9,6.9c-25.3,18.2-53.6,28.1-84.4,31.1c-28.4,2.8-56.3,0.7-83-9.8
			c-8.9-3.5-17.4-7.8-24.8-14.3c-7.7-6.8-16.5-12.3-24.5-18.8C787.1,465.8,783.3,461.1,779.3,456.9L779.3,456.9z"/>
		<path d="M926,347.5c4.8,15.4,1.8,28.8-10.3,40.7c-2.4-13.7-2.4-27.7-14.6-37.6c6.5,21.9,1.7,40.2-14.5,56.6
			c-1.2-18.7-1.9-36.8-21.3-45.7c4.9,6.3,8.2,13.1,7.3,21.4c-0.8,7.8-3.2,15-8.7,21.4c-4.7-15.2-9.7-29.8-27.6-35.5
			c7.3,13,9.5,25.5,2.8,39.2c-7.3-16-19.7-22.4-37.6-21.6c8.8,6.6,14.2,14.1,16.2,24.7c-13.5-10.7-29.3-10.9-44.9-12.9
			c64.4-45.7,137.1-64.2,215.1-65.4c2.1,15.8-7.2,36.7-19.4,44.4c-0.8-6.4-1.2-13-2.6-19.3c-1.5-6.5-5.4-11.6-12.2-15.6
			c9.2,15.1,7.5,29.1-0.9,44c-0.5-1.9-0.6-2.7-1-4.5c-1.2,1.8-2.7,3.1-2.5,4c1.7,7.4-4.6,9.5-8.1,13.4c-0.5-0.2-0.9-0.5-1.4-0.7
			c1.3-2.8,2.9-5.4,3.8-8.3c0.7-2.3,0.5-4.8,0.3-7.2c0-1.1-1.2-2.2-1.1-3.2c0.6-8.9-2.6-16.7-7.2-24c-2.2-3.4-5.5-6-8.4-8.9
			C926.7,347.1,926.4,347.3,926,347.5L926,347.5z"/>
		<path d="M627.3,494.1c-39.9,18.8-73.2,46.6-104.8,77.4c2.2-7.4,13.5-24,25.6-35.6c10.5-10,21.4-19.7,33-28.3
			c11.7-8.7,24.6-15.8,36-23.1c-9.1,1.4-48.1,17-91.1,47.6c1.6-2.1,2.9-4.4,4.7-6.2c6.5-6.4,13.1-12.7,19.9-18.8
			c26.8-24,59.3-37.5,92.8-48.8c2.8-0.9,4.4-0.6,6.4,1.7c5.7,6.6,11.8,12.8,18,19.4c-27.4,28.8-49,62.7-66.3,99.8
			c-1.6-12.5,10-49.8,34-79.2c-5.7,5.1-11.5,10.1-17.1,15.3c-5.7,5.4-11.4,10.9-16.7,16.6c-5.2,5.7-10.1,11.6-14.9,17.7
			c-4.9,6.1-9.4,12.5-14.2,18.8C572.2,552.2,594.4,522.2,627.3,494.1L627.3,494.1z"/>
		<path d="M705.3,377.9c-0.8-0.4-1.6-0.9-1.5-0.9c1-3.5,1.7-6.2,2.7-10c3.9,5.1,0.5,7.8-1.3,10.8L705.3,377.9L705.3,377.9z"/>
		<path d="M545.3,266.8c-0.1,0.1-0.2,0.3-0.3,0.4l-0.1-0.3C544.9,266.9,545.1,266.8,545.3,266.8L545.3,266.8z"/>
		<path d="M545.1,266.8c1.3-1.8,2.6-3.6,4.2-5.7c-0.9-0.8-1.8-1.6-2.8-2.5c5.9-0.2,3.5,4.3,4.3,6.5
			C548.7,265.7,546.9,266.2,545.1,266.8z"/>
		<path d="M713.3,367.2c1,0.9,2.6,1.6,2.7,2.6c0.2,1.6-0.6,3.3-1,4.9c-0.6,0-1.2,0-1.9-0.1c-0.4-2.2-0.8-4.5-1.1-6.7
			C712.4,367.8,712.8,367.5,713.3,367.2L713.3,367.2z"/>
	</g>
</g>
</svg>
